<svg xmlns="http://www.w3.org/2000/svg" width="1200" height="630" viewBox="0 0 1200 630"><rect width="1200" height="630" fill="#0b1020"/><circle cx="1030" cy="100" r="190" fill="#5b3cc4" opacity=".22"/><circle cx="170" cy="560" r="180" fill="#14b8a6" opacity=".12"/><text x="80" y="105" fill="#f8fafc" font-family="Arial, sans-serif" font-size="46" font-weight="700">NETRON LABS</text><text x="80" y="150" fill="#9ca3af" font-family="Arial, sans-serif" font-size="22">Ürün haritası · 2026</text><g font-family="Arial, sans-serif"><g transform="translate(80 215)"><rect width="245" height="220" rx="22" fill="#151c33" stroke="#64748b"/><text x="24" y="58" fill="#60a5fa" font-size="18">01</text><text x="24" y="105" fill="#ffffff" font-size="30" font-weight="700">Netron AI</text><text x="24" y="145" fill="#cbd5e1" font-size="18">Konuşma ve üretim</text></g><g transform="translate(350 215)"><rect width="245" height="220" rx="22" fill="#151c33" stroke="#64748b"/><text x="24" y="58" fill="#c084fc" font-size="18">02</text><text x="24" y="105" fill="#ffffff" font-size="30" font-weight="700">ProtonX</text><text x="24" y="145" fill="#cbd5e1" font-size="18">Araştırma katmanı</text></g><g transform="translate(620 215)"><rect width="245" height="220" rx="22" fill="#151c33" stroke="#64748b"/><text x="24" y="58" fill="#2dd4bf" font-size="18">03</text><text x="24" y="105" fill="#ffffff" font-size="30" font-weight="700">Nethost</text><text x="24" y="145" fill="#cbd5e1" font-size="18">Yönetilen web hizmeti</text></g><g transform="translate(890 215)"><rect width="245" height="220" rx="22" fill="#151c33" stroke="#64748b"/><text x="24" y="58" fill="#fbbf24" font-size="18">04</text><text x="24" y="105" fill="#ffffff" font-size="30" font-weight="700">Netron OS</text><text x="24" y="145" fill="#cbd5e1" font-size="18">Yakında</text></g></g><text x="80" y="550" fill="#94a3b8" font-family="Arial, sans-serif" font-size="18">Netron Labs · Açık ürün yol haritası</text></svg>
